<?xml version="1.0" encoding="utf-8"?>
<!-- Generator: Adobe Illustrator 24.1.0, SVG Export Plug-In . SVG Version: 6.00 Build 0)  -->
<svg version="1.1" id="VECTO" xmlns="http://www.w3.org/2000/svg" xmlns:xlink="http://www.w3.org/1999/xlink" x="0px" y="0px"
	 viewBox="0 0 234.79 136.57" style="enable-background:new 0 0 234.79 136.57;" xml:space="preserve">
<style type="text/css">
	.st0{fill:#FFFFFF;}
	.st1{fill:#1B1B1B;}
	.st2{fill:#D84759;}
	.st3{fill:#1C1C1C;}
	.st4{fill:#FDD51E;}
	.st5{fill:#F9AF03;}
	.st6{clip-path:url(#SVGID_2_);fill:#F9AF03;}
	.st7{clip-path:url(#SVGID_4_);fill:#F9AF03;}
	.st8{clip-path:url(#SVGID_6_);fill:#F9AF03;}
	.st9{clip-path:url(#SVGID_18_);fill:#F9AF03;}
	.st10{clip-path:url(#SVGID_20_);fill:#F9AF03;}
	.st11{clip-path:url(#SVGID_22_);fill:#F9AF03;}
	.st12{clip-path:url(#SVGID_24_);fill:#F9AF03;}
	.st13{clip-path:url(#SVGID_26_);fill:#F9AF03;}
	.st14{fill:none;stroke:#D3D9EE;stroke-width:2;stroke-miterlimit:10;}
	.st15{clip-path:url(#SVGID_28_);fill:#F9AF03;}
	.st16{clip-path:url(#SVGID_30_);fill:#F9AF03;}
	.st17{fill:#F3F7FB;}
	.st18{fill:#D3D9EE;}
	.st19{fill:none;stroke:#FFFFFF;stroke-linecap:round;stroke-linejoin:round;stroke-miterlimit:10;}
	.st20{fill:none;}
	.st21{opacity:0.5;}
	.st22{clip-path:url(#SVGID_32_);fill:#F9AF03;}
</style>
<g>
	<path class="st2" d="M214.09,136.53l-193.4,0.04c-11.42,0-20.66-9.25-20.69-20.67l0-95.2C0,9.28,9.25,0.04,20.67,0.01L214.07,0
		c11.42,0,20.66,9.25,20.69,20.67l0.03,95.2C234.76,127.26,225.52,136.5,214.09,136.53z"/>
	<g>
		<path class="st0" d="M36.14,43.6l0-9.95l19.92-6.38l0.01,16.33l10.29,0l0.01,14.08l-10.29,0l0,19.27c0,3.69-0.75,8.65,3.48,8.65
			c1.41-0.01,4.76-0.98,6.83-1.83l-0.01,13.86c-3.26,1.3-10.6,2.06-13.1,2.05c-16.24,0-16.79-8.87-17.09-22.73l0-19.27l-5.85-0.01
			L30.33,43.6L36.14,43.6z"/>
		<path class="st0" d="M75.34,97.73l0.01-14.17l4.53,0.01l0-25.87l-4.53-0.01l-0.01-14.08l25.09-0.02l0.01,39.92l5.19,0.01
			l-0.01,14.17L75.34,97.73z M90.05,16.78c7.48-0.01,11.89,6.07,11.89,11.05c0,5.94-4.23,10.94-11.89,10.92
			c-6.82-0.01-11.68-5.72-11.7-10.91C78.36,22.83,82.48,16.78,90.05,16.78z"/>
		<path class="st0" d="M113.32,105.6l-0.01-47.62l-4.53-0.01l-0.01-14.39l24.77,0.01l1.83,3.77c2.05-1.51,6.6-4.66,13.11-4.64
			c16.89,0.01,25.53,12.98,25.54,28.35c0,17.21-10.71,27.82-24.66,27.82c-8.98,0-13.32-3.57-14.07-4.21l0,10.92l5.85,0.01
			l-0.01,14.17l-32.35,0.02l0.01-14.17L113.32,105.6z M142.93,58c-4.22-0.01-8.1,5.3-7.68,13.86c0.01,7.35,3.7,12.98,7.8,12.97
			c4.53,0.01,7.69-5.29,7.67-13.52C150.73,64.8,147.71,57.99,142.93,58z"/>
		<path class="st0" d="M190.48,75.18c7.7,0,12.89,5.3,12.88,11.46c0.01,6.07-4.99,11.14-12.87,11.16c-7.04,0-12.34-5.53-12.35-11.13
			C178.16,81.25,182.68,75.19,190.48,75.18z M178.58,22.05l25.87,0l0,20.55l-5.72,27.26l-14.3,0l-5.86-27.26L178.58,22.05z"/>
	</g>
</g>
</svg>
